PathFileType   4   (X/Y/Z)
DataRate	CameraRate	NumFrames	NumMarkers	Units	OrigDataRate	OrigDataStartFrame	OrigNumFrames
120.0	120.0	4	37	mm	120.0	117	186
Frame#	Time	midhip	hip_r	hip_l	knee_r	knee_l	ankle_r	ankle_l	midasis	asis_r	asis_l	psis_r	psis_l	epicondLat_r	epicondLat_l	epicondMed_r	epicondMed_l	malleolusLat_r	malleolusLat_l	malleolusMedv_r	malleolusMedv_l	neck	subclavicle_r	subclavicle_l	sternalnotch	xyphoidprocess	thighwand_r	thighwand_l	upperleg1_r	upperleg1_l	upperleg2_r	upperleg2_l	shankwand_r	shankwand_l	lowerleg1_r	lowerleg1_l	toe_r	toe_l
 	 	X1	Y1	Z1	X2	Y2	Z2	X3	Y3	Z3	X4	Y4	Z4	X5	Y5	Z5	X6	Y6	Z6	X7	Y7	Z7	X8	Y8	Z8	X9	Y9	Z9	X10	Y10	Z10	X11	Y11	Z11	X12	Y12	Z12	X13	Y13	Z13	X14	Y14	Z14	X15	Y15	Z15	X16	Y16	Z16	X17	Y17	Z17	X18	Y18	Z18	X19	Y19	Z19	X20	Y20	Z20	X21	Y21	Z21	X22	Y22	Z22	X23	Y23	Z23	X24	Y24	Z24	X25	Y25	Z25	X26	Y26	Z26	X27	Y27	Z27	X28	Y28	Z28	X29	Y29	Z29	X30	Y30	Z30	X31	Y31	Z31	X32	Y32	Z32	X33	Y33	Z33	X34	Y34	Z34	X35	Y35	Z35	X36	Y36	Z36	X37	Y37	Z37

	117	1.39167	1908.733	895.617	-240.553	1909.364	874.967	-173.025	1899.415	874.418	-323.124	1975.011	472.846	-179.031	1898.748	455.308	-326.951	1956.694	69.038	-208.773	1615.326	181.561	-322.680	1993.240	958.856	-254.271	2001.128	959.291	-135.264	1985.352	958.420	-373.278	1809.498	1005.948	-206.795	1808.718	1002.013	-292.169	1987.307	473.999	-121.849	1896.479	455.841	-384.904	1941.223	471.290	-231.127	1904.236	427.391	-273.726	1949.113	66.495	-169.580	1599.424	197.528	-354.511	1962.198	84.720	-237.223	1628.408	186.627	-296.584	1801.643	1424.371	-221.354	1928.319	1342.276	-179.173	1932.937	1348.733	-284.446	1913.520	1353.937	-229.018	1990.090	1188.228	-247.702	2022.156	572.609	-49.242	2060.381	525.454	-348.307	2021.289	641.488	-111.120	1987.056	582.664	-375.902	2023.520	556.679	-139.855	1963.718	498.174	-373.217	1984.904	191.447	-76.862	1705.934	284.567	-441.783	1963.765	163.441	-151.073	1676.086	262.065	-370.158	2081.026	39.080	-203.739	1620.167	57.908	-319.766
	118	1.40000	1912.163	895.335	-239.842	1913.142	874.917	-172.325	1903.034	874.507	-322.413	1977.544	472.756	-179.121	1908.195	455.243	-326.736	1956.955	68.901	-208.790	1623.053	183.928	-322.260	1996.868	958.949	-253.578	2004.879	959.274	-134.622	1988.856	958.624	-372.534	1813.135	1005.878	-206.007	1812.319	1001.962	-291.379	1989.859	473.762	-121.941	1906.293	455.817	-384.702	1945.957	470.195	-230.696	1914.328	426.805	-273.669	1949.373	66.408	-169.595	1607.517	199.725	-354.355	1962.659	84.539	-237.230	1636.122	189.284	-296.159	1805.600	1424.492	-220.589	1932.354	1342.461	-178.166	1936.511	1348.633	-283.322	1917.439	1354.085	-228.245	1993.771	1188.208	-246.486	2025.051	572.159	-49.092	2069.279	527.493	-347.005	2024.678	641.149	-111.119	1995.295	583.815	-375.078	2027.288	556.442	-139.188	1973.295	498.472	-372.626	1985.900	191.176	-76.880	1715.334	285.202	-441.646	1964.958	163.633	-150.956	1685.409	263.826	-369.983	2081.068	39.019	-203.800	1629.803	60.224	-321.288
	119	1.40833	1915.697	895.401	-239.523	1916.821	874.879	-171.680	1906.579	874.635	-321.760	1980.106	472.694	-179.258	1917.512	455.327	-326.500	1957.239	68.764	-208.841	1631.084	185.961	-321.840	2000.421	959.057	-252.912	2008.535	959.250	-134.009	1992.307	958.864	-371.814	1816.630	1005.833	-205.289	1815.759	1002.002	-290.712	1992.402	473.551	-122.072	1915.983	455.942	-384.476	1948.668	469.726	-230.220	1923.318	426.502	-274.393	1949.656	66.323	-169.642	1615.849	201.603	-354.154	1963.099	84.515	-237.249	1644.391	191.194	-295.702	1809.078	1424.886	-219.836	1936.149	1342.881	-177.481	1940.239	1348.871	-282.391	1921.285	1354.242	-227.489	1997.640	1188.556	-245.454	2027.846	571.716	-48.983	2078.030	529.684	-345.670	2027.977	640.657	-111.095	2003.974	585.146	-373.967	2030.241	555.957	-138.843	1982.573	499.062	-372.279	1986.917	190.945	-76.933	1724.770	285.850	-441.450	1965.989	164.239	-150.919	1693.954	265.457	-369.472	2081.145	38.954	-203.860	1640.652	62.367	-323.063
	120	1.41667	1918.793	895.320	-239.434	1920.400	874.854	-171.089	1910.051	874.799	-321.162	1982.638	472.645	-179.412	1926.689	455.552	-326.245	1957.542	68.633	-208.926	1639.476	187.561	-321.472	2003.900	959.178	-252.271	2012.096	959.222	-133.413	1995.704	959.135	-371.129	1819.994	1005.817	-204.636	1819.056	1002.121	-290.149	1994.895	473.358	-122.215	1925.522	456.209	-384.229	1948.739	470.266	-229.666	1932.509	426.350	-274.704	1949.947	66.241	-169.727	1624.465	203.071	-353.954	1963.396	84.626	-237.271	1653.135	193.331	-295.214	1812.655	1425.169	-219.108	1940.037	1343.382	-176.958	1944.027	1349.087	-281.993	1925.061	1354.416	-226.758	2001.678	1188.952	-244.604	2030.532	571.300	-48.916	2086.601	531.997	-344.349	2030.834	640.120	-110.957	2011.987	586.017	-373.284	2031.997	555.533	-138.862	1991.822	499.980	-371.904	1987.902	190.745	-77.019	1734.250	286.484	-441.221	1966.554	164.526	-151.002	1702.095	266.466	-368.914	2081.241	38.889	-203.922	1652.547	64.273	-325.039
